<svg xmlns="http://www.w3.org/2000/svg" width="800" height="344" viewBox="0 0 800 344" fill="none">
  <path d="M242.563 337.748L58.5807 283.419L0 343.183L51.2573 132.203L37.5294 33.5045L85.1261 80.5895L267.277 -4.018e-05L454.92 47.087C454.92 47.087 488.78 64.9955 492.447 70.6284C496.12 76.2634 498.566 108.487 495.193 111.376C491.826 114.266 482.955 113.68 479.634 111.376C476.316 109.073 483.19 100.95 480.848 97.0358C477.031 90.6617 470.318 91.0596 464.624 88.0644C458.925 85.0712 445.773 67.5302 445.773 67.5302L275.515 31.6929L99.7707 121.337L76.8881 239.05L242.563 337.748Z" fill="#38791E"/>
  <path d="M800 103.227C800 103.227 696.499 59.7144 609.611 52.5203C608.556 52.4314 517.109 123.044 507.258 127.218C497.411 131.393 476.305 127.218 476.305 127.218C476.305 127.218 465.886 125.845 460.476 113.998C455.551 103.208 464.345 96.9454 464.345 96.9454C464.345 96.9454 445.758 95.1135 444.998 110.516C443.591 139.05 489.012 152.196 514.295 148.445C527.817 146.438 580.777 87.3761 617.849 76.0618C630.371 72.2405 800 103.227 800 103.227Z" fill="#38791E"/>
  <path d="M299.741 118.518C296.401 118.752 271.897 121.18 269.437 127.486C264.19 140.943 262.13 159.625 260.609 171.153C255.838 207.273 260.611 255.427 261.803 259.674C262.996 263.921 262.279 265.572 267.767 264.865C273.255 264.156 282.558 264.865 285.423 263.211C288.287 261.56 287.336 262.035 286.378 254.481C285.425 246.928 283.757 203.731 284.71 187.682C285.664 171.632 289.721 144.954 293.059 136.691C296.401 128.431 299.741 118.518 299.741 118.518Z" fill="#EA5B18"/>
  <path d="M310.241 181.78C310.002 187.445 308.808 214.824 309.286 224.028C309.761 233.233 310.48 263.923 311.911 264.868C313.343 265.813 330.521 264.627 332.191 263.686C333.861 262.739 331.711 233.516 331.713 223.555C331.717 213.883 331.001 203.968 333.861 200.424C334.937 199.095 351.099 192.161 353.43 195.235C354.861 197.123 352.952 221.434 353.669 229.697C354.384 237.959 355.339 261.8 356.531 264.159C357.726 266.522 371.562 265.807 373.949 264.391C376.335 262.977 374.185 242.653 373.471 231.818C372.756 220.964 371.803 207.979 374.189 203.732C376.574 199.484 383.017 195.235 385.641 198.303C388.267 201.371 388.879 219.296 390.173 225.209C393.277 239.375 399.244 259.675 401.392 261.564C403.538 263.448 415.71 265.023 418.571 264.159C424.058 262.509 422.625 256.131 420.716 252.354C418.807 248.579 411.649 225.445 409.74 216.003C407.832 206.561 406.727 189.346 404.253 185.557C399.481 178.243 375.143 188.859 373.234 189.097C371.325 189.333 374.189 180.364 363.689 181.543C356.203 182.386 334.578 191.454 334.578 191.454C334.578 191.454 334.819 182.723 333.387 181.309C331.954 179.891 310.241 181.78 310.241 181.78Z" fill="#EA5B18"/>
  <path d="M460.803 187.678C454.601 193.578 442.669 204.442 444.103 208.927C445.534 213.413 449.352 223.089 453.169 223.089C457.608 223.089 460.946 224.097 472.257 204.91C475.597 199.243 481.089 194.527 477.03 190.514C472.975 186.505 460.803 187.678 460.803 187.678ZM456.987 176.825C461.759 175.879 471.105 178.45 478.224 179.658C486.573 181.074 498.026 182.255 502.324 186.973C506.617 191.695 492.301 211.755 483.949 217.891C475.599 224.029 461.042 232.525 461.042 232.525C461.042 232.525 471.066 245.75 478.7 250.464C485.054 254.389 493.972 258.256 493.016 261.324C492.065 264.39 473.537 265.184 468.917 264.39C463.431 263.453 447.441 251.414 447.441 251.414C447.441 251.414 446.011 250.47 442.669 246.688C438.645 242.135 418.264 214.423 424.058 206.332C436.226 189.334 449.366 178.333 456.987 176.825Z" fill="#EA5B18"/>
  <path d="M537.399 184.608C537.399 184.608 518.547 183.429 517.832 184.844C517.116 186.262 516.64 226.862 517.595 234.886C518.549 242.91 518.786 259.435 521.411 261.324C524.037 263.212 538.83 263.683 539.069 260.381C539.31 257.076 537.397 211.046 538.114 209.394C538.83 207.744 554.818 194.529 557.683 195.945C560.547 197.36 565.558 228.75 566.272 233C566.987 237.247 570.374 258.139 572.715 259.912C576.774 262.986 590.61 263.685 592.756 260.144C594.906 256.604 586.317 229.936 583.214 218.369C580.108 206.802 578.918 183.435 571.997 182.011C555.974 178.721 537.636 197.829 537.636 197.829L537.399 184.608Z" fill="#EA5B18"/>
  <path d="M678.179 120.169C676.794 115.732 664.481 115.918 660.047 117.812C649.545 122.298 609.22 135.04 607.787 138.342C606.356 141.649 606.597 192.167 607.311 208.69C607.82 220.364 610.319 258.859 613.52 261.325C615.668 262.985 674.894 262.822 685.337 261.798C690.11 261.325 681.439 252.144 676.509 250.706C661.958 246.456 634.753 248.104 633.559 245.507C632.366 242.912 630.217 207.507 631.65 205.144C633.081 202.783 659.567 204.441 661.239 203.025C662.911 201.607 662.197 192.874 659.808 191.931C657.421 190.986 630.694 192.084 630.221 188.154C628.791 176.353 626.401 152.747 630.46 149.679C634.514 146.609 644.296 138.585 657.658 134.099C667.562 130.775 679.138 123.241 678.179 120.169Z" fill="#EA5B18"/>
  <path d="M754.532 182.011C752.385 181.068 735.206 174.698 718.742 180.129C706.611 184.132 684.472 199.013 684.623 205.858C684.864 216.72 708.005 229.458 713.014 232.053C718.028 234.651 730.435 239.607 730.435 242.911C730.435 246.217 730.913 250.228 726.617 249.994C722.321 249.758 710.151 246.215 704.661 245.981C699.177 245.745 690.58 245.365 691.301 248.576C692.734 254.952 715.643 260.854 722.087 261.565C728.528 262.274 744.696 265.721 750.478 262.037C753.82 259.913 755.847 245.583 753.342 237.959C750.239 228.517 711.58 210.103 712.777 205.381C713.969 200.659 715.643 198.068 728.528 194.291C741.415 190.514 752.623 185.552 753.82 184.372C755.008 183.193 754.532 182.011 754.532 182.011Z" fill="#EA5B18"/>
  <path d="M192.225 129.751C184.828 135.419 175.283 162.325 173.376 179.557C172.174 190.391 170.987 233.374 172.896 238.094C174.807 242.816 181.726 251.312 185.544 252.728C189.362 254.144 198.668 255.091 202.247 252.26C205.828 249.426 213.223 208.826 216.563 191.831C219.903 174.835 223.243 142.027 221.097 136.126C218.95 130.224 214.813 128.376 208.69 127.388C198.429 125.738 192.225 129.751 192.225 129.751ZM244.243 136.596C247.39 146.046 243.049 178.375 239.709 197.023C236.369 215.671 225.63 261.231 219.903 265.006C214.178 268.783 196.52 265.949 181.01 264.061C165.502 262.172 149.991 255.33 148.56 238.804C147.748 229.413 147.368 185.22 148.082 173.892C148.799 162.561 170.751 123.377 175.046 119.128C179.34 114.878 196.52 112.992 202.964 113.23C202.964 113.23 237.561 116.533 244.243 136.596Z" fill="#EA5B18"/>
</svg>